PathFileType	4	(X/Y/Z)	RBDS013\RBDS013runT45.trc
DataRate	CameraRate	NumFrames	NumMarkers	Units	OrigDataRate	OrigDataStartFrame	OrigNumFrames
150.000000	150.000000	4	33	mm	150.000000	2812	4500
Frame#	Time	L.ASIS			L.Heel.Bottom			L.Heel.Lateral			L.Heel.Top			L.Iliac.Crest			L.MT1			L.MT5			L.PSIS			L.Shank.Bottom.Lateral			L.Shank.Bottom.Medial			L.Shank.Top.Lateral			L.Shank.Top.Medial			L.Thigh.Bottom.Lateral			L.Thigh.Bottom.Medial			L.Thigh.Top.Lateral			L.Thigh.Top.Medial			R.ASIS			R.ASY			R.Heel.Bottom			R.Heel.Lateral			R.Heel.Top			R.Iliac.Crest			R.MT1			R.MT5			R.PSIS			R.Shank.Bottom.Lateral			R.Shank.Bottom.Medial			R.Shank.Top.Lateral			R.Shank.Top.Medial			R.Thigh.Bottom.Lateral			R.Thigh.Bottom.Medial			R.Thigh.Top.Lateral			R.Thigh.Top.Medial			
		X1	Y1	Z1	X2	Y2	Z2	X3	Y3	Z3	X4	Y4	Z4	X5	Y5	Z5	X6	Y6	Z6	X7	Y7	Z7	X8	Y8	Z8	X9	Y9	Z9	X10	Y10	Z10	X11	Y11	Z11	X12	Y12	Z12	X13	Y13	Z13	X14	Y14	Z14	X15	Y15	Z15	X16	Y16	Z16	X17	Y17	Z17	X18	Y18	Z18	X19	Y19	Z19	X20	Y20	Z20	X21	Y21	Z21	X22	Y22	Z22	X23	Y23	Z23	X24	Y24	Z24	X25	Y25	Z25	X26	Y26	Z26	X27	Y27	Z27	X28	Y28	Z28	X29	Y29	Z29	X30	Y30	Z30	X31	Y31	Z31	X32	Y32	Z32	X33	Y33	Z33	

2813	18.74666666666667	2297.509435927596	903.7816501965389	900.3626883281584	1744.479029217412	734.2226364460661	973.5511050859625	1744.409264584449	706.5300093934701	927.1112845474789	1773.987443872874	699.5608986715982	967.7850256513234	2252.397686466235	982.1125900304619	869.4563706067197	1632.59140067671	552.2190979011984	987.5474867131119	1632.824160984371	599.5366979760672	887.5661655084864	2133.183175789984	954.0484291533432	958.7659359575406	1812.289556840227	622.2651731383618	899.2232071264092	1828.06210348268	656.0254204796778	940.5866310092774	1889.205710098596	603.8169911637839	886.0372819801277	1904.9881876468	636.846221369953	925.3122564463754	2148.071487696083	561.5304117579743	850.8955627435367	2084.363800467608	580.9716345241693	880.7625184053707	2171.847195396287	668.81361151669	838.7111248657175	2111.287611891465	687.2113208235852	866.5333032320493	2275.625271628779	910.6622553157459	1129.811046523095	2538.7312479293	106.3451970498812	1066.180975596012	2360.5883190832	46.55139401039281	1033.936494186119	2380.498650868415	61.14085842286613	1078.272801473081	2366.643371546422	96.34117546636345	1041.94439541923	2220.100996148592	974.9001131935815	1166.306420075992	2565.815813739216	77.31013213381914	1015.846860998053	2533.605274141168	52.8571023068336	1117.837878824144	2118.777007542127	948.9486233813184	1059.8498136578	2403.444269644179	172.4289150991591	1106.097901292161	2369.617061099847	174.3668087796623	1067.116815661311	2382.588006460783	252.5957431996694	1124.076645488786	2349.303458985971	250.7229252785582	1082.2585172012	2327.133350366651	601.3060590882025	1169.19039189983	2276.546394703583	572.9683037816286	1124.144022298551	2263.555379450478	690.1672963830038	1178.09016723684	2215.96692345288	663.8927260977755	1135.76513335801	
2814	18.75333333333333	2297.528584911201	897.867580573492	901.5966534016395	1768.224356414727	739.0169418114408	973.4861523185325	1767.339427721688	711.211251950569	927.036689823147	1796.379743214384	703.2945464047289	968.0546307806471	2254.900183076077	974.6197261443499	869.4464587345777	1649.391399329665	561.5294742095095	987.1482782672769	1651.789950400761	608.6239762429702	887.0870612647053	2132.530789782557	947.7350134294655	957.4034046469604	1831.172541056557	623.93657616192	898.8885821365819	1848.822754325882	657.0140997086419	940.1082343761906	1906.945861283582	601.9184180687258	885.0323021368235	1924.599128920089	634.0415340636812	924.3856527604793	2156.715000013447	553.1069998289552	849.4953091757325	2092.401321984691	570.6389575480301	879.1272944027934	2177.720825112043	661.1252784973526	838.1373178994327	2116.425599684936	677.6948877995334	865.5195407810779	2274.866587704173	905.9673205179582	1130.509482496009	2514.445096970255	97.51052725499122	1061.371519747189	2333.738796531153	42.8567442527826	1032.094457003091	2354.464939785059	57.83961423844234	1075.848071439537	2341.617082923482	92.65745089074818	1038.815671667781	2219.803328028545	970.0041588017473	1166.630369031048	2540.6376068329	66.81631565465653	1011.873202005817	2507.72128575328	46.13093639667012	1114.830899949079	2117.817055011252	943.6304529733279	1058.933338562203	2385.300764360453	166.1675358598302	1102.99283202984	2350.448895062362	170.2720855096967	1065.301233126863	2369.367481689844	247.1873538499054	1121.896605611951	2334.732312435408	247.4916391311348	1081.355102892942	2325.586669889236	596.7671238761615	1168.873346050698	2274.871081702033	568.1035017844661	1124.202026043997	2261.530919888056	685.3041959889573	1178.15745047542	2214.021578064581	658.94062674521	1135.886805099557	
2815	18.76	2297.228991625415	891.6560817058989	902.9431715777874	1791.866444405767	741.6473582267751	973.3257786399085	1790.321572072498	713.749776401394	926.8597529635226	1818.898788273813	705.0984091288375	968.2045101027315	2257.30040779802	966.8808734933701	869.561970407089	1667.478443271788	568.0808841630326	986.8533410341458	1671.607045179513	614.793208529525	886.6730358466	2131.708632430373	941.5023727382205	956.1983936041374	1850.74550533174	623.9466306763768	898.5425724583363	1870.113475245365	656.2911628654776	939.6873610858399	1925.33454140229	598.6988602394887	884.0264798423782	1944.716041234738	629.8588853050962	923.5092178845599	2166.209176779227	544.7808928341969	847.9804877435482	2101.292366068006	560.1803700064647	877.3080547810503	2184.089649092038	653.4828693068044	837.4698483080425	2122.020034073988	668.0094606063748	864.2848353789719	2273.943019144875	900.9443330830024	1131.222852920326	2488.466958639102	90.02649918900875	1056.533860868627	2305.653253927177	39.59431577990625	1030.548678070884	2327.131341764593	55.27095398958877	1073.625204915778	2315.100739278673	89.40680604708299	1035.723441685591	2219.507417121882	964.656439674367	1167.035199077884	2513.922240942916	57.83006455139142	1008.102425737813	2480.467272781634	41.04956987222783	1112.066495516661	2116.70774121524	938.3810934415455	1058.123532319791	2366.034426691897	160.438914038684	1099.768689754734	2330.060448083208	166.7836734870883	1063.590873004778	2355.263632951434	242.0796338440907	1119.62114287469	2319.157091904741	244.6752859139506	1080.596443008928	2323.309456497085	591.8501012650487	1168.483305575622	2272.436027413049	563.0710726133317	1124.055934815527	2259.013836394141	680.2550874969958	1178.245758609998	2211.522153967735	653.9802945772819	1135.943496630022	
2816	18.76666666666667	2296.544668995673	885.2745161492904	904.339289232903	1815.069964020379	742.3116682113633	972.9698510512715	1813.024724752189	714.2991801522428	926.4986752808276	1841.247256450618	705.1350888638812	968.1531009660767	2259.293382051133	959.0903203260539	869.7676058633332	1686.516474487446	571.8564239673412	986.6718966971537	1691.932207278532	618.026263916955	886.3111802896383	2130.652368721012	935.4312585900716	955.187274931693	1870.833775017815	622.4200997919668	898.1433096126692	1891.717248846686	654.0269005540374	939.2875470673542	1944.291254614689	594.3286212155436	883.0402611743739	1965.208221140414	624.532442578872	922.6825837830623	2176.653504289836	536.8067115723696	846.3919020422741	2111.159266584129	549.8083679814073	875.3614406115295	2190.982247269648	646.1060048021956	836.7404784560883	2128.131360918655	658.3331811338529	862.87684114474	2272.763883499691	895.7104702951777	1131.967838008075	2461.130273493793	84.07600172617956	1051.884863151096	2276.73522364368	36.87576813554055	1029.269587901761	2298.86516673382	53.48362266261218	1071.617882969041	2287.455745213168	86.69379807467746	1032.73372587849	2219.086697263849	958.906500648602	1167.494809173283	2486.029278524516	50.62473344145426	1004.707685241719	2452.194485192604	37.66205073704237	1109.62689281184	2115.369364218389	933.2876353584996	1057.396467578247	2345.717239752337	155.4452695858348	1096.509110039872	2308.624479542243	164.0446520623709	1061.971764503531	2340.20923517521	237.42719001881	1117.272289413289	2302.627721845711	242.3736224919751	1079.90251930812	2320.111094616803	586.6456024173062	1167.978010481102	2269.04804287923	558.0151793093438	1123.648895455504	2255.898854700889	675.1615828384907	1178.305821092301	2208.355088958173	649.1978588689313	1135.88459059066	
